<svg width="109" height="65" viewBox="0 0 109 65" fill="none" xmlns="http://www.w3.org/2000/svg">
<line y1="-3" x2="18.3848" y2="-3" transform="matrix(0.707107 -0.707107 0.797642 0.603132 57 61)" stroke="#CCA580" stroke-width="6"/>
<line y1="-3" x2="18.3848" y2="-3" transform="matrix(-0.707107 -0.707107 0.797642 -0.603132 83 61)" stroke="#CCA580" stroke-width="6"/>
<line y1="-3" x2="18.3848" y2="-3" transform="matrix(0.707107 -0.707107 0.797642 0.603132 83 61)" stroke="#CCA580" stroke-width="6"/>
<line y1="-3" x2="18.3848" y2="-3" transform="matrix(-0.707107 -0.707107 0.797642 -0.603132 109 61)" stroke="#CCA580" stroke-width="6"/>
<line y1="-3" x2="18.3848" y2="-3" transform="matrix(0.707107 -0.707107 0.797642 0.603132 5 61)" stroke="#CCA580" stroke-width="6"/>
<line y1="-3" x2="18.3848" y2="-3" transform="matrix(-0.707107 -0.707107 0.797642 -0.603132 31 61)" stroke="#CCA580" stroke-width="6"/>
<line y1="-3" x2="18.3848" y2="-3" transform="matrix(0.707107 -0.707107 0.797642 0.603132 31 61)" stroke="#CCA580" stroke-width="6"/>
<line y1="-3" x2="18.3848" y2="-3" transform="matrix(-0.707107 -0.707107 0.797642 -0.603132 57 61)" stroke="#CCA580" stroke-width="6"/>
<path d="M49.7668 36L40.8388 21.504C40.1668 21.632 39.3188 21.696 38.2948 21.696H33.0148V36H30.6628V1.92H38.4388C40.2308 1.92 41.9428 2.272 43.5748 2.976C45.2388 3.68 46.5828 4.752 47.6068 6.192C48.6628 7.632 49.1908 9.424 49.1908 11.568C49.1908 13.648 48.7108 15.536 47.7508 17.232C46.7908 18.896 45.3028 20.112 43.2868 20.88L52.5028 36H49.7668ZM38.1508 19.44C41.2548 19.44 43.4628 18.672 44.7748 17.136C46.1188 15.6 46.7908 13.776 46.7908 11.664C46.7908 10.32 46.4548 9.072 45.7828 7.92C45.1428 6.768 44.2148 5.856 42.9988 5.184C41.7828 4.512 40.3748 4.176 38.7748 4.176H33.0148V19.44H38.1508ZM87.4021 1.92L72.9061 37.584L58.4101 1.92H61.1461L73.0501 32.064L84.7141 1.92H87.4021Z" fill="#CCA580"/>
</svg>
